<svg width="32" height="32" fill="none" xmlns="http://www.w3.org/2000/svg">
  <circle cx="16" cy="16" r="16" fill="#6D8434"/>
  <path d="M16.93 8.89a3.35 3.35 0 0 0-1.136-1.067c-1.257-.72-2.876-.594-4.37.243C8.65 9.62 6.834 12.542 6.834 16c0 4.617 3.341 8.344 7.705 9.05.477.077.964.117 1.461.117a9.136 9.136 0 0 0 9.167-9.238c-.02-1.61-.665-3.586-1.686-5.165-1.017-1.573-2.58-3.007-4.523-2.988-.948.001-1.595.523-2.028 1.115V8.89Zm5.546 3.454a3.96 3.96 0 0 0-1.053-.027l-.966-1.625-1.432.85.743 1.25c-.31.146-.608.32-.887.52a4.464 4.464 0 0 0-.015-.048c-.223-.675-.653-1.23-1.226-1.78l.003-.017c.058-.269.15-.616.287-.954.31-.763.672-1.072 1.033-1.072h.01c1.075-.012 2.196.814 3.109 2.226.141.219.273.445.395.676l-.001.001Zm-5.134 2.498a4.45 4.45 0 0 0-.834.097 3.134 3.134 0 0 0-.885-.954 2.684 2.684 0 0 0-2.535-.328c-.089-.051-.179-.101-.27-.15l2.694-2.641-1.166-1.19-3.196 3.132c-.675-.196-1.306-.266-1.872-.187a7.25 7.25 0 0 1 2.962-3.102c1.137-.637 2.114-.602 2.726-.25.583.333 1.067 1.092.946 2.447l-.038.419.315.28c.685.605.97.997 1.093 1.37.087.263.116.58.06 1.057ZM15 15.679c-.712.596-1.19 1.432-1.467 2.335l-2.478-2.72-1.232 1.123 3.406 3.74c-.004.993.123 2.01.309 2.929A7.46 7.46 0 0 1 8.5 16c0-.867.24-1.34.524-1.546.268-.197.855-.357 2.059.087.434.16.938.407 1.514.766l.418.26.43-.242c.52-.292.916-.188 1.22.025.133.093.248.21.335.33Zm1.47 7.806 6.078-6.698-1.235-1.12-2.443 2.693.006-.845-1.667-.012-.019 2.709-2.07 2.28c-.156-.85-.25-1.765-.22-2.622.054-1.463.638-2.664 1.502-3.14.359-.198.991-.275 1.491-.187l.742.13.204-.725c.107-.377.39-.781.831-1.141.448-.363.97-.623 1.528-.764.668-.163 1.237-.078 1.612.18.328.225.657.685.688 1.629v.015L23.5 16a7.465 7.465 0 0 1-7.03 7.485Z" fill="#E8E8E2"/>
</svg>
